<svg xmlns="http://www.w3.org/2000/svg" width="900" height="900" viewBox="0 0 900 900"><defs><radialGradient id="bg1" cx="50%" cy="42%" r="70%"><stop offset="0" stop-color="#0d1117"/><stop offset="0.6" stop-color="#080b10"/><stop offset="1" stop-color="#04060a"/></radialGradient><radialGradient id="bg12" cx="50%" cy="42%" r="70%"><stop offset="0" stop-color="#3a2f1c"/><stop offset="1" stop-color="#000000"/></radialGradient><linearGradient id="sheen" x1="0" y1="0" x2="1" y2="0.6"><stop offset="0" stop-color="#00000000"/><stop offset="0.5" stop-color="#ffffff"/><stop offset="1" stop-color="#00000000"/></linearGradient><linearGradient id="st_1" x1="0" y1="0" x2="0" y2="1"><stop offset="0" stop-color="#3a2c20"/><stop offset="0.5" stop-color="#1a1109"/><stop offset="1" stop-color="#3a2c20"/></linearGradient><linearGradient id="gl_2" x1="0" y1="0" x2="1" y2="1"><stop offset="0" stop-color="#ffffff"/><stop offset="0.5" stop-color="#00000000"/><stop offset="1" stop-color="#ffffff"/></linearGradient><linearGradient id="case_3" x1="0" y1="0" x2="0" y2="1"><stop offset="0" stop-color="#eef1f6"/><stop offset="0.5" stop-color="#d3dae4"/><stop offset="1" stop-color="#93a0b2"/></linearGradient><linearGradient id="bz_4" x1="0" y1="0" x2="1" y2="0"><stop offset="0" stop-color="#93a0b2"/><stop offset="0.4" stop-color="#eef1f6"/><stop offset="1" stop-color="#93a0b2"/></linearGradient><radialGradient id="dl_5" cx="50%" cy="42%" r="70%"><stop offset="0" stop-color="#0e2b5e"/><stop offset="0.7" stop-color="#0a1f44"/><stop offset="1" stop-color="#05132b"/></radialGradient><radialGradient id="skR_6" cx="50%" cy="42%" r="70%"><stop offset="0" stop-color="#c9cfd9"/><stop offset="1" stop-color="#7b8696"/></radialGradient><linearGradient id="cr_7" x1="0" y1="0" x2="1" y2="0"><stop offset="0" stop-color="#a86b47"/><stop offset="0.35" stop-color="#f4cdab"/><stop offset="0.7" stop-color="#e09f74"/><stop offset="1" stop-color="#a86b47"/></linearGradient></defs><rect width="900" height="900" fill="url(#bg1)"/><ellipse cx="450" cy="455" rx="360" ry="150" fill="url(#bg12)" opacity="0.9"/><rect width="900" height="900" fill="url(#sheen)"/><rect x="375" y="108" width="150" height="46" rx="4" fill="url(#st_1)"/><ellipse cx="450" cy="131" rx="67" ry="15" fill="none" stroke="#000" stroke-width="1" opacity="0.15"/><rect x="375" y="600" width="150" height="46" rx="4" fill="url(#st_1)"/><ellipse cx="450" cy="623" rx="67" ry="15" fill="none" stroke="#000" stroke-width="1" opacity="0.15"/><rect x="378.5" y="160" width="143" height="46" rx="4" fill="url(#st_1)"/><ellipse cx="450" cy="183" rx="63.5" ry="15" fill="none" stroke="#000" stroke-width="1" opacity="0.15"/><rect x="378.5" y="652" width="143" height="46" rx="4" fill="url(#st_1)"/><ellipse cx="450" cy="675" rx="63.5" ry="15" fill="none" stroke="#000" stroke-width="1" opacity="0.15"/><rect x="382" y="212" width="136" height="46" rx="4" fill="url(#st_1)"/><ellipse cx="450" cy="235" rx="60" ry="15" fill="none" stroke="#000" stroke-width="1" opacity="0.15"/><rect x="382" y="704" width="136" height="46" rx="4" fill="url(#st_1)"/><ellipse cx="450" cy="727" rx="60" ry="15" fill="none" stroke="#000" stroke-width="1" opacity="0.15"/><rect x="385.5" y="264" width="129" height="46" rx="4" fill="url(#st_1)"/><ellipse cx="450" cy="287" rx="56.5" ry="15" fill="none" stroke="#000" stroke-width="1" opacity="0.15"/><rect x="385.5" y="756" width="129" height="46" rx="4" fill="url(#st_1)"/><ellipse cx="450" cy="779" rx="56.5" ry="15" fill="none" stroke="#000" stroke-width="1" opacity="0.15"/><rect x="389" y="316" width="122" height="46" rx="4" fill="url(#st_1)"/><ellipse cx="450" cy="339" rx="53" ry="15" fill="none" stroke="#000" stroke-width="1" opacity="0.15"/><rect x="389" y="808" width="122" height="46" rx="4" fill="url(#st_1)"/><ellipse cx="450" cy="831" rx="53" ry="15" fill="none" stroke="#000" stroke-width="1" opacity="0.15"/><circle cx="450" cy="455" r="194" fill="url(#case_3)" stroke="#93a0b2" stroke-width="2"/><circle cx="450" cy="455" r="186" fill="url(#bz_4)" stroke="#93a0b2" stroke-width="2"/><circle cx="450" cy="455" r="158" fill="url(#dl_5)" stroke="#0a0c10" stroke-width="6"/><circle cx="450" cy="455" r="158" fill="none" stroke="#fff" stroke-width="1" opacity="0.12"/><circle cx="450" cy="455" r="150" fill="url(#skR_6)" opacity="0.5"/><line x1="450" y1="455" x2="600" y2="455" stroke="#93a0b2" stroke-width="3" opacity="0.5"/><line x1="450" y1="455" x2="525" y2="325.0961894323342" stroke="#93a0b2" stroke-width="3" opacity="0.5"/><line x1="450" y1="455" x2="375" y2="325.0961894323342" stroke="#93a0b2" stroke-width="3" opacity="0.5"/><line x1="450" y1="455" x2="300" y2="455" stroke="#93a0b2" stroke-width="3" opacity="0.5"/><line x1="450" y1="455" x2="374.99999999999994" y2="584.9038105676658" stroke="#93a0b2" stroke-width="3" opacity="0.5"/><line x1="450" y1="455" x2="525" y2="584.9038105676658" stroke="#93a0b2" stroke-width="3" opacity="0.5"/><circle cx="372" cy="398" r="26" fill="none" stroke="#d3dae4" stroke-width="2.5"/><circle cx="398" cy="398" r="4.5" fill="#93a0b2"/><circle cx="393.0344418537486" cy="382.7175834403957" r="4.5" fill="#93a0b2"/><circle cx="380.03444185374866" cy="373.272530576326" r="4.5" fill="#93a0b2"/><circle cx="363.9655581462514" cy="373.272530576326" r="4.5" fill="#93a0b2"/><circle cx="350.9655581462514" cy="382.7175834403957" r="4.5" fill="#93a0b2"/><circle cx="346" cy="398" r="4.5" fill="#93a0b2"/><circle cx="350.9655581462514" cy="413.2824165596043" r="4.5" fill="#93a0b2"/><circle cx="363.96555814625134" cy="422.727469423674" r="4.5" fill="#93a0b2"/><circle cx="380.0344418537486" cy="422.727469423674" r="4.5" fill="#93a0b2"/><circle cx="393.0344418537486" cy="413.2824165596043" r="4.5" fill="#93a0b2"/><circle cx="372" cy="398" r="6.24" fill="#93a0b2"/><circle cx="538" cy="500" r="32" fill="none" stroke="#d3dae4" stroke-width="2.5"/><circle cx="570" cy="500" r="4.5" fill="#93a0b2"/><circle cx="563.8885438199983" cy="481.19087192664085" r="4.5" fill="#93a0b2"/><circle cx="547.8885438199983" cy="469.5661914785551" r="4.5" fill="#93a0b2"/><circle cx="528.1114561800017" cy="469.5661914785551" r="4.5" fill="#93a0b2"/><circle cx="512.1114561800017" cy="481.19087192664085" r="4.5" fill="#93a0b2"/><circle cx="506" cy="500" r="4.5" fill="#93a0b2"/><circle cx="512.1114561800017" cy="518.8091280733591" r="4.5" fill="#93a0b2"/><circle cx="528.1114561800017" cy="530.4338085214449" r="4.5" fill="#93a0b2"/><circle cx="547.8885438199983" cy="530.4338085214449" r="4.5" fill="#93a0b2"/><circle cx="563.8885438199983" cy="518.8091280733591" r="4.5" fill="#93a0b2"/><circle cx="538" cy="500" r="7.68" fill="#93a0b2"/><circle cx="456" cy="560" r="38" fill="none" stroke="#d3dae4" stroke-width="2.5"/><circle cx="494" cy="560" r="4.5" fill="#93a0b2"/><circle cx="486.742645786248" cy="537.6641604128861" r="4.5" fill="#93a0b2"/><circle cx="467.742645786248" cy="523.8598523807842" r="4.5" fill="#93a0b2"/><circle cx="444.257354213752" cy="523.8598523807841" r="4.5" fill="#93a0b2"/><circle cx="425.257354213752" cy="537.664160412886" r="4.5" fill="#93a0b2"/><circle cx="418" cy="560" r="4.5" fill="#93a0b2"/><circle cx="425.257354213752" cy="582.3358395871139" r="4.5" fill="#93a0b2"/><circle cx="444.25735421375197" cy="596.1401476192158" r="4.5" fill="#93a0b2"/><circle cx="467.742645786248" cy="596.1401476192159" r="4.5" fill="#93a0b2"/><circle cx="486.742645786248" cy="582.335839587114" r="4.5" fill="#93a0b2"/><circle cx="456" cy="560" r="9.12" fill="#93a0b2"/><circle cx="360" cy="500" r="26" fill="none" stroke="#d3dae4" stroke-width="2.5"/><circle cx="386" cy="500" r="4.5" fill="#93a0b2"/><circle cx="381.0344418537486" cy="484.7175834403957" r="4.5" fill="#93a0b2"/><circle cx="368.03444185374866" cy="475.272530576326" r="4.5" fill="#93a0b2"/><circle cx="351.9655581462514" cy="475.272530576326" r="4.5" fill="#93a0b2"/><circle cx="338.9655581462514" cy="484.7175834403957" r="4.5" fill="#93a0b2"/><circle cx="334" cy="500" r="4.5" fill="#93a0b2"/><circle cx="338.9655581462514" cy="515.2824165596043" r="4.5" fill="#93a0b2"/><circle cx="351.96555814625134" cy="524.7274694236739" r="4.5" fill="#93a0b2"/><circle cx="368.0344418537486" cy="524.7274694236739" r="4.5" fill="#93a0b2"/><circle cx="381.0344418537486" cy="515.2824165596043" r="4.5" fill="#93a0b2"/><circle cx="360" cy="500" r="6.24" fill="#93a0b2"/><circle cx="545" cy="396" r="32" fill="none" stroke="#d3dae4" stroke-width="2.5"/><circle cx="577" cy="396" r="4.5" fill="#93a0b2"/><circle cx="570.8885438199983" cy="377.19087192664085" r="4.5" fill="#93a0b2"/><circle cx="554.8885438199983" cy="365.5661914785551" r="4.5" fill="#93a0b2"/><circle cx="535.1114561800017" cy="365.5661914785551" r="4.5" fill="#93a0b2"/><circle cx="519.1114561800017" cy="377.19087192664085" r="4.5" fill="#93a0b2"/><circle cx="513" cy="396" r="4.5" fill="#93a0b2"/><circle cx="519.1114561800017" cy="414.80912807335915" r="4.5" fill="#93a0b2"/><circle cx="535.1114561800017" cy="426.4338085214449" r="4.5" fill="#93a0b2"/><circle cx="554.8885438199983" cy="426.4338085214449" r="4.5" fill="#93a0b2"/><circle cx="570.8885438199983" cy="414.80912807335915" r="4.5" fill="#93a0b2"/><circle cx="545" cy="396" r="7.68" fill="#93a0b2"/><line x1="450" y1="555" x2="450" y2="576" stroke="#d8dde6" stroke-width="7" stroke-linecap="round"/><line x1="500" y1="541.6025403784439" x2="510.5" y2="559.7890738579172" stroke="#d8dde6" stroke-width="4.5" stroke-linecap="round"/><line x1="536.6025403784439" y1="505" x2="554.7890738579172" y2="515.5" stroke="#d8dde6" stroke-width="4.5" stroke-linecap="round"/><line x1="550" y1="455" x2="571" y2="455" stroke="#d8dde6" stroke-width="7" stroke-linecap="round"/><line x1="536.6025403784439" y1="405" x2="554.7890738579172" y2="394.5" stroke="#d8dde6" stroke-width="4.5" stroke-linecap="round"/><line x1="500" y1="368.3974596215561" x2="510.5" y2="350.2109261420829" stroke="#d8dde6" stroke-width="4.5" stroke-linecap="round"/><line x1="450" y1="355" x2="450" y2="334" stroke="#d8dde6" stroke-width="7" stroke-linecap="round"/><line x1="400" y1="368.39745962155615" x2="389.5" y2="350.21092614208294" stroke="#d8dde6" stroke-width="4.5" stroke-linecap="round"/><line x1="363.39745962155615" y1="404.99999999999994" x2="345.21092614208294" y2="394.49999999999994" stroke="#d8dde6" stroke-width="4.5" stroke-linecap="round"/><line x1="350" y1="455" x2="329" y2="455" stroke="#d8dde6" stroke-width="7" stroke-linecap="round"/><line x1="363.39745962155615" y1="505" x2="345.21092614208294" y2="515.5" stroke="#d8dde6" stroke-width="4.5" stroke-linecap="round"/><line x1="399.99999999999994" y1="541.6025403784439" x2="389.49999999999994" y2="559.7890738579171" stroke="#d8dde6" stroke-width="4.5" stroke-linecap="round"/><line x1="450" y1="455" x2="500" y2="541.6025403784439" stroke="#f0f3f6" stroke-width="7" stroke-linecap="round"/><line x1="450" y1="455" x2="525" y2="325.0961894323342" stroke="#f0f3f6" stroke-width="4.5" stroke-linecap="round"/><line x1="450" y1="455" x2="368.55198379861537" y2="308.06388920058146" stroke="#ffffff" stroke-width="1.6" stroke-linecap="round"/><circle cx="450" cy="455" r="9" fill="#d8dee9"/><circle cx="450" cy="455" r="4" fill="#000" opacity="0.55"/><path d="M358 327 q30 -16 60 0 l0 250 q-30 16 -60 577 z" fill="url(#gl_2)" opacity="0.2"/><rect x="636" y="387" width="26" height="22" rx="5" fill="url(#cr_7)" stroke="#a86b47" stroke-width="1.5"/><rect x="640" y="390" width="8" height="16" fill="#f4cdab" opacity="0.85"/><circle cx="450" cy="455" r="200" fill="none" stroke="#ffffff" stroke-width="1" opacity="0.14"/></svg>